<svg xmlns="http://www.w3.org/2000/svg" width="104" height="26" fill="none" xmlns:v="https://vecta.io/nano"><style><![CDATA[.B{fill-opacity:.87}]]></style><path d="M28.779 22.604c.138.994-.238 1.944-.92 2.539a2.52 2.52 0 0 1-.41.294c-.132.075-.27.14-.417.192-.331.117-.677.161-1.016.139-.009 0-.018 0-.028-.002-.684-.049-1.342-.359-1.808-.855-.756-.804-.734-1.802-.725-2.011a2.5 2.5 0 0 1 .016-.295h-8.218a2.48 2.48 0 0 1 .016.295c.009.209.031 1.207-.725 2.011-.466.496-1.124.806-1.808.855-.009.002-.019.002-.028.002a2.55 2.55 0 0 1-1.016-.139 2.54 2.54 0 0 1-.417-.192c-.146-.084-.283-.182-.41-.293-.681-.597-1.058-1.546-.92-2.54h-2.96l.06-.22 1.105-4.068.242-.011 2.828-.125c.128-.006.226-.112.22-.237s-.111-.225-.241-.218l-2.682.119-.241.011.402-1.482.234.019 2.271.188h.02c.119 0 .22-.09.229-.209.01-.125-.083-.236-.21-.246l-2.188-.181-.234-.019.407-1.5.216.083 2.155.824c.027.01.055.016.083.016a.23.23 0 0 0 .214-.146c.046-.117-.013-.25-.131-.295l-2.199-.843-.216-.082L12.912.802l2.584 7.879c.608-.306 2.025-.931 3.859-.903h.016c1.835-.028 3.251.597 3.859.903L25.814.802l3.582 13.18-.216.082-2.2.843c-.119.046-.178.178-.132.295.036.09.123.146.215.146.028 0 .055-.006.083-.016l2.155-.824.216-.083.407 1.5-.234.019-2.188.181a.23.23 0 0 0-.211.246.23.23 0 0 0 .229.209h.02l2.272-.188.234-.019.402 1.482-.24-.011-2.683-.119c-.13-.005-.235.091-.241.218s.093.232.22.237l2.829.125.242.011 1.105 4.068.06.22h-2.96z" fill="#f4e041"/><g fill="#000" class="B"><path d="M32.038 22.832l-.06-.219-.062-.229-1.103-4.057-.239-.01-.242-.011 1.106 4.071h-2.925l.036.259a2.65 2.65 0 0 1-.596 2.09 2.29 2.29 0 0 1-.295.288l-.099.078c-.069.052-.14.099-.215.141-.123.072-.253.133-.39.181a2.3 2.3 0 0 1-.703.131c-.078.002-.157 0-.235-.005l-.228-.026c-.539-.085-1.053-.348-1.44-.759-.642-.683-.678-1.517-.663-1.855 0-.099.005-.187.014-.269l.03-.254h-8.734l.03.254c.009.082.015.17.015.278.014.328-.022 1.163-.664 1.846a2.52 2.52 0 0 1-1.439.759l-.228.026-.235.005a2.3 2.3 0 0 1-.704-.131 2.22 2.22 0 0 1-.388-.18h-.001c-.075-.042-.147-.09-.216-.143l-.099-.078a2.36 2.36 0 0 1-.295-.288c-.471-.547-.705-1.306-.596-2.09l.036-.259H7.287l1.106-4.071-.242.011-.241.01-1.103 4.057-.062.229-.06.219h3.006c-.076 1.339.702 2.58 1.922 3.011 1.062.376 2.308.064 3.098-.777.761-.809.803-1.792.787-2.166l-.001-.067h7.726v.057c-.017.384.025 1.367.786 2.176a3 3 0 0 0 2.169.935 2.79 2.79 0 0 0 .929-.157c1.22-.431 1.998-1.671 1.922-3.011h3.006zM8.68 16.372l-.234-.019-.41 1.512.242-.01.241-.011.395-1.451-.234-.019zM25.835 0l-.241.731-2.156 6.572-.347 1.057c-.876-.408-2.174-.838-3.721-.811h-.013a8.55 8.55 0 0 0-3.726.811l-.347-1.057L13.13.731 12.89 0 9.114 13.898l.216.083.216.082 3.386-12.462 1.915 5.843.512 1.56.239-.121c.824-.415 2.149-.907 3.756-.878h.019c1.611-.027 2.927.463 3.751.878l.241.121.511-1.56 1.916-5.843 3.386 12.462.216-.082.215-.083L25.835 0zM8.993 14.341l-.425 1.564.234.019.234.019.39-1.436-.216-.083-.216-.083zm20.739.001l-.215.082-.216.083.39 1.436.234-.019.233-.018-.425-1.564zm.547 2.011l-.232.019-.234.019.395 1.451.241.011.24.01-.41-1.512zm-9.092-1.404c-.271 0-.489-.217-.489-.485v-2.937c0-.268.219-.485.489-.485s.489.217.489.485v2.937c0 .267-.219.485-.489.485zm-3.361-.512a.49.49 0 0 1-.539-.431l-.238-2.216c-.029-.266.166-.505.435-.534a.49.49 0 0 1 .539.431l.238 2.216c.029.267-.166.505-.435.534z"/><path d="M11.875 15.201a.23.23 0 0 1-.297.13l-2.155-.824-.216-.083-.216-.083-3.131-1.198c-.12-.046-.178-.178-.132-.295s.18-.175.298-.13l3.086 1.181.216.083.216.082 2.199.843c.119.046.177.178.131.295zm-.444 1.17c-.009.119-.11.209-.229.209h-.02l-2.271-.188-.234-.019-.234-.019-3.371-.279c-.127-.01-.221-.121-.209-.246s.12-.219.249-.207l3.454.285.234.019.234.019 2.188.181c.127.01.22.121.209.246zm.008 1.571c.006.125-.092.231-.22.237l-2.828.125-.242.011-.241.01-2.814.125h-.01c-.122 0-.224-.096-.229-.218s.092-.233.219-.238l2.96-.131.242-.01.241-.011 2.682-.119c.13-.007.235.091.241.218zm21.422-4.8l-3.132 1.199-.215.082-.216.083-2.155.824c-.028.01-.055.016-.083.016-.092 0-.18-.056-.215-.146-.046-.117.014-.25.132-.295l2.2-.843.216-.082.215-.083 3.087-1.181a.23.23 0 0 1 .298.13.23.23 0 0 1-.132.295zm.996 2.685a.23.23 0 0 1-.211.246l-3.371.279-.232.019-.234.019-2.272.188h-.02a.23.23 0 0 1-.229-.209.23.23 0 0 1 .211-.246l2.188-.181.234-.019.232-.018 3.455-.286c.127-.013.238.082.249.207zm.008 2.407a.23.23 0 0 1-.23.218h-.011l-2.814-.125-.239-.01-.242-.011-2.829-.125c-.127-.006-.226-.112-.22-.237a.23.23 0 0 1 .241-.218l2.683.119.24.011.241.01 2.96.131a.23.23 0 0 1 .22.238z"/></g><path d="M25.921 23.58c.088.251.164.556.188.906.029.412-.023.77-.095 1.053l-.094-1.96z" fill="#fff"/><path d="M26.015 25.767a.23.23 0 0 1-.055-.007c-.123-.03-.199-.154-.168-.276a3.16 3.16 0 0 0 .087-.983 3.27 3.27 0 0 0-.176-.847c-.041-.118.022-.248.143-.289a.23.23 0 0 1 .292.141 3.72 3.72 0 0 1 .2.964 3.61 3.61 0 0 1-.1 1.124c-.027.103-.121.172-.223.172z" fill="#000" class="B"/><path d="M27.422 23.489c.141.225.264.498.302.812a1.75 1.75 0 0 1-.151.944l-.15-1.756z" fill="#fff"/><path d="M27.572 25.472c-.031 0-.062-.007-.093-.019-.116-.051-.169-.186-.117-.301a1.54 1.54 0 0 0 .132-.824c-.03-.239-.12-.481-.268-.719-.067-.107-.034-.247.075-.314s.25-.033.316.074c.184.294.296.599.334.904a1.99 1.99 0 0 1-.168 1.064.23.23 0 0 1-.211.136z" fill="#000" class="B"/><path d="M12.803 23.58a3.47 3.47 0 0 0-.189.906c-.029.412.023.77.095 1.053l.094-1.96z" fill="#fff"/><path d="M12.707 25.767a.23.23 0 0 1-.223-.173 3.6 3.6 0 0 1-.1-1.124c.022-.325.09-.649.2-.964.042-.119.173-.183.292-.141s.184.171.143.29c-.097.278-.157.562-.176.847a3.16 3.16 0 0 0 .087.983c.03.122-.045.246-.168.276-.018.006-.037.008-.055.008z" fill="#000" class="B"/><path d="M11.302 23.489c-.141.225-.263.498-.302.812-.046.368.037.689.151.944l.15-1.756z" fill="#fff"/><path d="M11.151 25.472a.23.23 0 0 1-.211-.136 1.98 1.98 0 0 1-.168-1.064c.038-.306.15-.609.334-.904a.23.23 0 0 1 .316-.074c.108.066.142.206.075.314-.148.237-.238.48-.268.719-.033.274.01.551.132.824.052.115-.001.25-.117.301-.031.014-.062.019-.093.019zm-2.796-2.673H.245c-.135 0-.245-.087-.245-.194s.11-.194.245-.194h8.11c.135 0 .245.087.245.194s-.11.194-.245.194zm29.529.041h-7.625a.23.23 0 0 1-.23-.228.23.23 0 0 1 .23-.228h7.625a.23.23 0 0 1 .23.228.23.23 0 0 1-.23.228zm-16.18-4.196c-.166.426-.549.888-1.036.958-.45.063-.864-.176-1.163-.546-.029.079-.064.16-.111.24-.075.132-.476.787-1.146.787h-.018c-.638-.011-1.191-.587-1.288-1.341-.015-.125.074-.239.2-.254a.23.23 0 0 1 .257.197c.074.581.485.936.839.942h.009c.422 0 .714-.496.746-.553a1.19 1.19 0 0 0 .127-.763l-.029-.106c-.443.051-.825-.103-.895-.383-.079-.319.276-.682.795-.809s1.006.027 1.085.347c.067.263-.162.555-.535.722l.031.147c.186.613.663.973 1.031.922.286-.041.554-.368.67-.669.099-.255.085-.496.056-.652a.23.23 0 1 1 .453-.083 1.66 1.66 0 0 1-.079.897zm22.103-.056c-.393 0-.59-.108-.59-.325V9.335h-2.833c-.098 0-.172-.034-.221-.103s-.074-.182-.074-.34v-.236c0-.158.025-.271.074-.34s.123-.103.221-.103h6.92c.108 0 .182.034.221.103.049.069.074.182.074.34v.236c0 .158-.025.271-.074.34-.039.069-.113.103-.221.103h-2.789v8.928c0 .217-.197.325-.59.325h-.118zm5.973-.03c-.157 0-.27-.034-.339-.103s-.103-.182-.103-.34v-9.46c0-.158.034-.271.103-.34s.182-.103.339-.103h5.149c.108 0 .182.034.221.103.049.069.074.182.074.34v.236c0 .158-.025.271-.074.34-.039.069-.113.103-.221.103h-4.294v3.37h3.851c.108 0 .182.034.221.103.049.069.074.182.074.34v.236c0 .158-.025.271-.074.34-.039.069-.113.104-.221.104h-3.851v3.607h4.308c.108 0 .182.035.221.103.049.069.074.182.074.34v.236c0 .158-.025.271-.074.34-.039.069-.113.103-.221.103H49.78zm9.766.089c-.59 0-1.136-.069-1.638-.207s-.88-.306-1.136-.503c-.187-.138-.28-.261-.28-.369 0-.118.064-.281.192-.488.138-.207.246-.31.325-.31.039 0 .143.049.31.148a6.2 6.2 0 0 0 .974.429c.354.118.772.177 1.254.177.57 0 1.033-.158 1.387-.473.364-.325.546-.749.546-1.271 0-.365-.098-.665-.295-.902a2.07 2.07 0 0 0-.723-.576c-.276-.148-.679-.325-1.21-.532l-1.357-.621c-.335-.187-.62-.463-.856-.828-.236-.374-.354-.862-.354-1.463a2.57 2.57 0 0 1 .398-1.419c.275-.414.659-.734 1.151-.961.502-.236 1.077-.355 1.726-.355.334 0 .708.049 1.121.148.413.089.733.212.959.37.197.118.295.246.295.384 0 .108-.064.266-.192.473-.118.207-.212.31-.28.31-.049 0-.123-.025-.221-.074l-.177-.103a3.28 3.28 0 0 0-1.535-.384c-.571 0-1.033.148-1.387.443-.344.296-.516.705-.516 1.227 0 .335.084.606.251.813.177.207.374.365.59.473l1.166.473c.59.227 1.072.448 1.446.665.374.207.688.512.944.916.265.394.398.902.398 1.522 0 .887-.295 1.586-.885 2.099s-1.387.769-2.39.769zm7.79-.059c-.394 0-.59-.108-.59-.325V9.335h-2.833c-.098 0-.172-.034-.221-.103s-.074-.182-.074-.34v-.236c0-.158.025-.271.074-.34s.123-.103.221-.103h6.92c.108 0 .182.034.221.103.049.069.074.182.074.34v.236c0 .158-.025.271-.074.34-.039.069-.113.103-.221.103h-2.789v8.928c0 .217-.197.325-.59.325h-.118zm8.098 0c-.393 0-.59-.108-.59-.325V9.335h-2.833c-.098 0-.172-.034-.221-.103s-.074-.182-.074-.34v-.236c0-.158.025-.271.074-.34s.123-.103.221-.103h6.92c.108 0 .182.034.221.103.049.069.074.182.074.34v.236c0 .158-.025.271-.074.34-.039.069-.113.103-.221.103h-2.789v8.928c0 .217-.197.325-.59.325h-.118zm4.305 0c-.423 0-.635-.084-.635-.251a.71.71 0 0 1 .044-.207l3.497-9.711c.059-.158.256-.237.59-.237h.428c.354 0 .551.079.59.237l3.497 9.726a.49.49 0 0 1 .044.192c0 .168-.211.251-.635.251h-.118c-.344 0-.541-.079-.59-.236l-.871-2.424h-4.338l-.841 2.424c-.049.158-.246.236-.59.236h-.074zm5.444-3.784l-1.549-4.405c-.049-.158-.108-.443-.177-.857h-.03c-.079.394-.152.68-.221.857l-1.549 4.405h3.526zm6.393 3.843c-.59 0-1.136-.069-1.638-.207s-.88-.306-1.136-.503c-.187-.138-.28-.261-.28-.369 0-.118.064-.281.192-.488.138-.207.246-.31.325-.31.039 0 .142.049.31.148a6.2 6.2 0 0 0 .974.429c.354.118.772.177 1.254.177.57 0 1.033-.158 1.387-.473.364-.325.546-.749.546-1.271 0-.365-.098-.665-.295-.902a2.07 2.07 0 0 0-.723-.576c-.275-.148-.679-.325-1.21-.532l-1.358-.621c-.334-.187-.62-.463-.856-.828-.236-.374-.354-.862-.354-1.463 0-.532.133-1.005.398-1.419.275-.414.659-.734 1.151-.961.502-.236 1.077-.355 1.726-.355.334 0 .708.049 1.121.148.413.089.733.212.959.37.197.118.295.246.295.384 0 .108-.064.266-.192.473-.118.207-.212.31-.28.31-.049 0-.123-.025-.221-.074l-.177-.103a3.28 3.28 0 0 0-1.534-.384c-.571 0-1.033.148-1.387.443-.344.296-.516.705-.516 1.227 0 .335.084.606.251.813.177.207.374.365.59.473l1.166.473c.59.227 1.072.448 1.446.665.374.207.688.512.944.916.266.394.398.902.398 1.522 0 .887-.295 1.586-.885 2.099s-1.387.769-2.39.769zm5.799-.059c-.393 0-.59-.108-.59-.325V8.507c0-.217.197-.325.59-.325h.118c.393 0 .59.108.59.325v4.523h.059l3.63-4.641c.108-.138.374-.207.797-.207h.147c.168 0 .296.02.384.059.089.03.133.074.133.133 0 .089-.049.187-.148.296l-3.688 4.612 4.47 4.863c.089.098.133.177.133.236 0 .079-.049.133-.147.163s-.266.044-.502.044h-.177c-.217 0-.389-.01-.517-.03a.49.49 0 0 1-.295-.163l-4.219-4.759h-.059v4.626c0 .217-.197.325-.59.325h-.118z" fill="#000" class="B"/></svg>